<?xml version="1.0" encoding="UTF-8"?>
<svg id="Layer_2" data-name="Layer 2" xmlns="http://www.w3.org/2000/svg" viewBox="0 0 1228.52 1181.76">
  <defs>
    <style>
      .cls-1 {
        fill: none;
        font-family: Telegraf-Regular, 'Telegraf Regular';
        font-size: 90px;
        stroke: #000;
        stroke-miterlimit: 10;
      }
    </style>
  </defs>
  <g id="Layer_1-2" data-name="Layer 1">
    <g>
      <text class="cls-1" transform="translate(240.45 741.95) rotate(-95.17)"><tspan x="0" y="0">I</tspan></text>
      <text class="cls-1" transform="translate(238.37 721.36) rotate(-91.97)"><tspan x="0" y="0">š</tspan></text>
      <text class="cls-1" transform="translate(237.01 686.85) rotate(-87.62)"><tspan x="0" y="0">k</tspan></text>
      <text class="cls-1" transform="translate(238.49 645.99) rotate(-82.51)"><tspan x="0" y="0">o</tspan></text>
      <text class="cls-1" transform="translate(244.64 598.38) rotate(-76.92)"><tspan x="0" y="0">d</tspan></text>
      <text class="cls-1" transform="translate(255.77 550.32) rotate(-71.3)"><tspan x="0" y="0">u</tspan></text>
      <text class="cls-1" transform="translate(271.15 504.67) rotate(-65.74)"><tspan x="0" y="0">o</tspan></text>
      <text class="cls-1" transform="translate(291 460.88) rotate(-60.57)"><tspan x="0" y="0">k</tspan></text>
      <text class="cls-1" transform="translate(311.57 425.07) rotate(-57.1)"><tspan x="0" y="0"> </tspan></text>
      <text class="cls-1" transform="translate(321.3 409.58) rotate(-54.01)"><tspan x="0" y="0">s</tspan></text>
      <text class="cls-1" transform="translate(341.41 381.57) rotate(-49.55)"><tspan x="0" y="0">a</tspan></text>
      <text class="cls-1" transform="translate(368.24 349.98) rotate(-44.77)"><tspan x="0" y="0">v</tspan></text>
      <text class="cls-1" transform="translate(397.58 320.98) rotate(-40.39)"><tspan x="0" y="0">o</tspan></text>
      <text class="cls-1" transform="translate(434.8 290.28) rotate(-35.94)"><tspan x="0" y="0"> </tspan></text>
      <text class="cls-1" transform="translate(449.59 279.38) rotate(-33.21)"><tspan x="0" y="0">t</tspan></text>
      <text class="cls-1" transform="translate(473.48 263.4) rotate(-29.1)"><tspan x="0" y="0">a</tspan></text>
      <text class="cls-1" transform="translate(510.08 242.74) rotate(-23.76)"><tspan x="0" y="0">p</tspan></text>
      <text class="cls-1" transform="translate(555.74 222.77) rotate(-18.41)"><tspan x="0" y="0">a</tspan></text>
      <text class="cls-1" transform="translate(595.62 209.7) rotate(-14.32)"><tspan x="0" y="0">t</tspan></text>
      <text class="cls-1" transform="translate(624.17 202.16) rotate(-10.17)"><tspan x="0" y="0">y</tspan></text>
      <text class="cls-1" transform="translate(664.53 194.66) rotate(-4.92)"><tspan x="0" y="0">b</tspan></text>
      <text class="cls-1" transform="translate(714.18 190.46) rotate(.46)"><tspan x="0" y="0">ę</tspan></text>
    </g>
  </g>
</svg>