<?xml version="1.0" encoding="UTF-8"?>
<svg id="Layer_2" data-name="Layer 2" xmlns="http://www.w3.org/2000/svg" viewBox="0 0 51.31 29.21" fill="none">
  <defs>
    <style>
      .cls-1 {
        fill: none;
        stroke: #000;
        stroke-miterlimit: 10;
        stroke-width: .5px;
      }
    </style>
  </defs>
  <g id="Layer_1-2" data-name="Layer 1">
    <g>
      <path stroke="#000" class="cls-1" d="m48.22,5.86l-13.83-.03-6.74-.02c.74,0,1.34-.61,1.35-1.35v-1.25c.01-1.59-1.27-2.9-2.84-2.9l-14.55-.05c-1.57,0-2.86,1.29-2.86,2.88l-.08,22.84c0,1.59,1.27,2.9,2.84,2.9l8.97.03,13.83.05h1.51c1.57.01,2.86-1.29,2.86-2.87v-1.53c0-.23-.05-.44-.14-.63-.24-.46-.23-1.01,0-1.47.1-.19.15-.4.15-.63v-3.06c.01-.23-.04-.44-.14-.63-.24-.46-.23-1.01,0-1.47.1-.19.15-.4.15-.63v-3.06c.01-.75-.59-1.36-1.33-1.36l10.81.02c1.57,0,2.86-1.29,2.86-2.88h0c0-1.59-1.27-2.9-2.84-2.9Z"/>
      <line stroke="#000" class="cls-1" x1="34.7" y1="17.24" x2="38.75" y2="17.25"/>
      <line stroke="#000" class="cls-1" x1="34.68" y1="23.2" x2="38.73" y2="23.22"/>
      <line stroke="#000" class="cls-1" x1="23.98" y1="5.77" x2="28.03" y2="5.78"/>
      <rect fill="#000" x=".03" y="3.7" width="8.94" height="23.48" rx="2.35" ry="2.35" transform="translate(.06 -.02) rotate(.2)"/>
      <line stroke="#000" class="cls-1" x1="34.55" y1="11.61" x2="38.61" y2="11.63"/>
    </g>
  </g>
</svg>