<?xml version="1.0" encoding="utf-8"?>
<!-- Generator: Adobe Illustrator 26.5.0, SVG Export Plug-In . SVG Version: 6.00 Build 0)  -->
<svg version="1.1" id="Layer_1" xmlns="http://www.w3.org/2000/svg" xmlns:xlink="http://www.w3.org/1999/xlink" x="0px" y="0px"
	 viewBox="0 0 408.4 173.5" style="enable-background:new 0 0 408.4 173.5;" xml:space="preserve">
<style type="text/css">
	.st0{fill:url(#SVGID_1_);}
	.st1{fill:#FFFFFF;}
	.st2{clip-path:url(#SVGID_00000062874228917250432960000009606651734181537955_);}
	.st3{fill:url(#SVGID_00000178896852465382103230000009439468295503180467_);}
	.st4{clip-path:url(#SVGID_00000142141252580115716440000009304799503384868736_);}
	.st5{fill:url(#SVGID_00000177483266492300262360000008273376489128723096_);}
	.st6{clip-path:url(#SVGID_00000028304756517004477160000012566149321130218403_);}
	.st7{fill:#FFFFFF;stroke:#000000;stroke-width:0.5;}
	.st8{fill:url(#SVGID_00000083795306861925841800000003743577590069773700_);}
	.st9{fill:#C0DDFF;}
	.st10{fill:url(#SVGID_00000110452840956426165560000014069527346916503193_);}
	.st11{fill:url(#SVGID_00000014612995778434306190000000790959890089837966_);}
	.st12{fill:url(#SVGID_00000103957199759090910190000011410448175144262329_);}
	.st13{fill:url(#SVGID_00000077295525734682500830000003503228765595677622_);}
	.st14{fill:none;stroke:#000000;stroke-width:2;stroke-miterlimit:10;}
	.st15{fill:url(#SVGID_00000005239227092024491560000005176201557230479511_);}
	.st16{fill:url(#SVGID_00000023244585464086147510000003091147643219983786_);}
	.st17{fill:url(#SVGID_00000161608023511564789230000007188575021308947355_);}
	.st18{fill:url(#SVGID_00000178902021678798878970000013799869718113589420_);}
	.st19{fill:url(#SVGID_00000137126856521289287230000006405494016237909417_);}
	.st20{fill:url(#SVGID_00000066504801522959516620000004604611460311974288_);}
	.st21{fill:none;stroke:#000000;stroke-width:0.5;}
	.st22{fill:url(#SVGID_00000142138843966713383810000006388265218397335214_);}
	.st23{fill:none;stroke:#000000;stroke-miterlimit:10;}
	.st24{fill:none;stroke:#000000;stroke-width:0.5;stroke-miterlimit:10;}
	.st25{fill:url(#SVGID_00000038378218769453236870000013505522005679128996_);}
	.st26{fill:url(#SVGID_00000088849882978294738160000015646069082937279898_);}
	.st27{clip-path:url(#SVGID_00000007418322841241544400000016574951183578661265_);}
	.st28{fill:url(#SVGID_00000003101132503194294340000002099359810000773804_);}
	.st29{fill:url(#SVGID_00000085216425423578242420000012151682779610551172_);}
	.st30{fill:url(#SVGID_00000017499671783048825300000000616695620275700661_);}
	.st31{fill:url(#SVGID_00000003810473293707886060000001645413448132109198_);}
	.st32{clip-path:url(#SVGID_00000105408015930461691390000005499061039692903817_);}
	.st33{fill:url(#SVGID_00000068642029256597749140000007047035294314038971_);}
	.st34{fill:url(#SVGID_00000035508705847178070030000007919048234379371944_);}
	.st35{fill:#C0DDFF;stroke:#000000;stroke-width:0.5;stroke-miterlimit:10;}
	.st36{fill:url(#SVGID_00000019674743674201615860000005186637351330761350_);}
	.st37{fill:url(#SVGID_00000021082704286608557620000011760862631077981091_);}
	.st38{fill:url(#SVGID_00000000202820997469268850000002496183328400642985_);}
	.st39{fill:url(#SVGID_00000060026953603474012820000016578410520069674385_);}
	.st40{fill:url(#SVGID_00000040560719596325085310000005375665552719366036_);}
	.st41{fill:url(#SVGID_00000096053904999502519410000001591086208166899593_);}
	.st42{fill:url(#SVGID_00000073689446434419532280000016639113167719292336_);}
	.st43{fill:url(#SVGID_00000094585952488168441710000006987932971720099716_);}
	.st44{fill:url(#SVGID_00000132081526778184587780000001182686464578552498_);}
	.st45{fill:url(#SVGID_00000055685804822460773860000015356922045948606107_);}
	.st46{fill:url(#SVGID_00000046318308730606151740000015143652640770431894_);}
	.st47{fill:url(#SVGID_00000034798123602536537070000001934232391223306126_);}
	.st48{fill:url(#SVGID_00000067934924332609600450000001508737754687028144_);}
	
		.st49{fill:url(#SVGID_00000147931856166707202460000006512759281935723136_);stroke:#000000;stroke-width:0.5;stroke-miterlimit:10;}
	.st50{fill:#FFFFFF;stroke:#000000;stroke-width:0.5;stroke-miterlimit:10;}
	.st51{clip-path:url(#SVGID_00000013162404705657456900000014894188795024395171_);}
	.st52{clip-path:url(#SVGID_00000137842941788341125540000005464121206658980261_);}
	.st53{fill:url(#SVGID_00000086687817042611894700000017693700137257047718_);}
	.st54{clip-path:url(#SVGID_00000020391979440035499620000003274432873277097361_);}
	.st55{fill:#0601FD;}
	.st56{fill:url(#SVGID_00000179643917033498475740000009333933281516441262_);}
	.st57{fill:#FFFFFF;stroke:#000000;stroke-miterlimit:10;}
	.st58{fill:url(#SVGID_00000165957614913272881060000015199104688097318328_);}
	.st59{clip-path:url(#SVGID_00000090286718495339762820000014057641637348056228_);}
	.st60{fill:url(#SVGID_00000122689530572375884720000014465000784573024407_);}
	.st61{clip-path:url(#SVGID_00000049206711471036436310000013863452959466458538_);}
	.st62{fill:url(#SVGID_00000165196794572054453850000000193092825128555147_);}
	.st63{fill:url(#SVGID_00000024001570930026407850000009445108757788193715_);}
	.st64{clip-path:url(#SVGID_00000038400893443197297860000018429620427866958758_);}
	.st65{fill:url(#SVGID_00000151526712032057155740000014742716198726007204_);}
	.st66{fill:url(#SVGID_00000057853788393914777760000015339321151602727066_);}
	.st67{clip-path:url(#SVGID_00000129904892905553891620000001426151078405712792_);}
	.st68{fill:#BEDBFC;}
	.st69{fill:url(#SVGID_00000066489329568888453500000005820976399600223663_);}
	.st70{clip-path:url(#SVGID_00000049941756274843672710000009598336613291215545_);}
	.st71{clip-path:url(#SVGID_00000115474421607049055580000010107948742486820755_);}
	.st72{clip-path:url(#SVGID_00000107551253560192163650000013380712662675851703_);}
	.st73{clip-path:url(#SVGID_00000049944455691866858970000013654863689953350279_);}
	.st74{clip-path:url(#SVGID_00000085216834302006169970000016145862128008146101_);}
	.st75{clip-path:url(#SVGID_00000002382324135575970010000007530246491032708750_);}
	.st76{fill:none;stroke:#000000;stroke-width:0.25;stroke-miterlimit:10;}
	.st77{clip-path:url(#SVGID_00000024682117440781189350000013021246647915754895_);}
	.st78{clip-path:url(#SVGID_00000062160022053301579850000001217095668972958858_);}
	.st79{clip-path:url(#SVGID_00000088121264105916317080000012111991071581783223_);}
	.st80{clip-path:url(#SVGID_00000086656207151602646870000011742992747395337600_);}
	.st81{clip-path:url(#SVGID_00000002382426890466005330000015967964476709166997_);}
	.st82{clip-path:url(#SVGID_00000168806782815537069130000012728571487204233632_);}
	.st83{clip-path:url(#SVGID_00000075847606018911902170000009484917116888987284_);}
	.st84{clip-path:url(#SVGID_00000005946459171714468820000010873583265968058759_);}
	.st85{clip-path:url(#SVGID_00000151542135849339284170000015651651170557505196_);}
	.st86{fill:#FFFFFF;stroke:#000000;stroke-width:2;stroke-miterlimit:10;}
	.st87{clip-path:url(#SVGID_00000094576923583964120560000003040673911780334257_);}
	
		.st88{fill:url(#SVGID_00000008134517288807970460000010978869636177771183_);stroke:#000000;stroke-width:0.5;stroke-miterlimit:10;}
	
		.st89{fill:url(#SVGID_00000130618104299704169960000004453605080071644814_);stroke:#000000;stroke-width:0.5;stroke-miterlimit:10;}
	.st90{clip-path:url(#SVGID_00000128458648964262508910000002945946472499764104_);}
	.st91{clip-path:url(#SVGID_00000042723143608643674120000015968790890022331292_);}
	.st92{clip-path:url(#SVGID_00000150794665704860075830000002340508852241512079_);}
	.st93{clip-path:url(#SVGID_00000028291059744929495710000007230708221994996372_);}
	.st94{clip-path:url(#SVGID_00000078727314008507863110000001918687272695170948_);}
	.st95{clip-path:url(#SVGID_00000041977163506019359980000012589959812953716118_);}
	.st96{clip-path:url(#SVGID_00000101790903532449010340000017803583582789459869_);}
	.st97{clip-path:url(#SVGID_00000039096991203782086350000011204688475616726185_);}
	.st98{clip-path:url(#SVGID_00000057146860524125008300000005710291386434980263_);}
	.st99{clip-path:url(#SVGID_00000008862327158839715630000013495661033115832455_);}
	.st100{clip-path:url(#SVGID_00000103950191728453982120000000952365280202828223_);}
	.st101{clip-path:url(#SVGID_00000063605220517642000930000005748060205316119442_);}
	.st102{clip-path:url(#SVGID_00000002368758207398286440000014964096929038972833_);}
	.st103{fill:url(#SVGID_00000085225540484393214820000009723286593916426164_);}
	.st104{fill:url(#SVGID_00000089550655216951908030000010662754617881802882_);}
	.st105{fill:url(#SVGID_00000140700430137362625570000007217682064824291262_);}
	.st106{fill:url(#SVGID_00000097473096432118703840000004735536933288571036_);}
	.st107{fill:none;stroke:#C1272D;stroke-miterlimit:10;}
	.st108{clip-path:url(#SVGID_00000029738474092372384040000012987665852795495353_);}
	.st109{fill:#D93B31;}
	.st110{clip-path:url(#SVGID_00000073694763231117837120000006855633127415508906_);}
	.st111{fill:#221F20;}
	.st112{opacity:0.3;}
	.st113{clip-path:url(#SVGID_00000050623887436109397660000002685142442024225711_);}
	.st114{fill:none;stroke:#221F20;stroke-width:0.15;stroke-miterlimit:10;}
	.st115{clip-path:url(#SVGID_00000086654044174723671010000017300780162721582991_);}
	.st116{clip-path:url(#SVGID_00000082349641121624883760000000660046849907069331_);}
	.st117{fill:url(#SVGID_00000150089984700092354350000017046024465512304825_);}
	.st118{fill:url(#SVGID_00000111896890077737661160000000769999849329361549_);}
	.st119{fill:url(#SVGID_00000070841258927844739470000011337329266809185432_);}
	.st120{fill:url(#SVGID_00000054268307674968257470000017250383338156968630_);}
	.st121{fill:url(#SVGID_00000112626414943760412950000000364120578407861668_);}
	.st122{fill:url(#SVGID_00000121257809929092952810000012996666673573467050_);}
	.st123{fill:url(#SVGID_00000034802934567558954140000015868537332591446672_);}
	.st124{fill:url(#SVGID_00000104684969175219870910000005956159592620358842_);}
	.st125{fill:url(#SVGID_00000088090674498957006590000014900294786262177209_);}
	.st126{fill:url(#SVGID_00000008139074966424109490000006943966574477818248_);}
	.st127{fill:url(#SVGID_00000172403238472947366250000014529226704595642784_);}
	.st128{fill:url(#SVGID_00000006671880685363803830000010076585277693578898_);}
	.st129{fill:url(#SVGID_00000113345889887508914150000015798291320252046475_);}
	.st130{fill:url(#SVGID_00000057142327979313312600000004807455911966806407_);}
</style>
<path d="M365.1,166.5L365.1,166.5c2.6,0,4.6-2.1,4.6-4.6V150c0-2.6-2.1-4.6-4.6-4.6h0c-2.6,0-4.6,2.1-4.6,4.6v11.8
	C360.4,164.4,362.5,166.5,365.1,166.5z"/>
<path d="M365.9,167h30.4c3,0,5.4-2.4,5.4-5.4v0c0-3-2.4-5.4-5.4-5.4h-30.4c-3,0-5.4,2.4-5.4,5.4v0C360.4,164.5,362.9,167,365.9,167z
	"/>
<path d="M319.5,166.2L319.5,166.2c2.6,0,4.6-2.1,4.6-4.6v-11.8c0-2.6-2.1-4.6-4.6-4.6h0c-2.6,0-4.6,2.1-4.6,4.6v11.8
	C314.9,164.1,317,166.2,319.5,166.2z"/>
<path d="M320.3,166.7h30.4c3,0,5.4-2.4,5.4-5.4v0c0-3-2.4-5.4-5.4-5.4h-30.4c-3,0-5.4,2.4-5.4,5.4v0
	C314.9,164.3,317.3,166.7,320.3,166.7z"/>
<linearGradient id="SVGID_1_" gradientUnits="userSpaceOnUse" x1="350.3018" y1="75.996" x2="385.7243" y2="75.996">
	<stop  offset="0" style="stop-color:#CFE1F9"/>
	<stop  offset="1" style="stop-color:#DFEDD6"/>
</linearGradient>
<path class="st0" d="M373.7,150.6h-11.4c-6.6,0-12-5.4-12-12V13.4c0-6.6,5.4-12,12-12h11.4c6.6,0,12,5.4,12,12v125.2
	C385.7,145.2,380.3,150.6,373.7,150.6z"/>
<linearGradient id="SVGID_00000035510071219231635450000001910333315348272795_" gradientUnits="userSpaceOnUse" x1="300.689" y1="75.996" x2="335.5077" y2="75.996">
	<stop  offset="0" style="stop-color:#CFE1F9"/>
	<stop  offset="1" style="stop-color:#DFEDD6"/>
</linearGradient>
<path style="fill:url(#SVGID_00000035510071219231635450000001910333315348272795_);" d="M323.5,150.6h-10.8c-6.6,0-12-5.4-12-12
	V13.4c0-6.6,5.4-12,12-12l10.8,0c6.6,0,12,5.4,12,12v125.2C335.5,145.2,330.1,150.6,323.5,150.6z"/>
<path d="M23.2,167.3L23.2,167.3c2.6,0,4.6-2.1,4.6-4.6v-11.8c0-2.6-2.1-4.6-4.6-4.6h0c-2.6,0-4.6,2.1-4.6,4.6v11.8
	C18.6,165.2,20.7,167.3,23.2,167.3z"/>
<path d="M24,167.8h30.4c3,0,5.4-2.4,5.4-5.4v0c0-3-2.4-5.4-5.4-5.4H24c-3,0-5.4,2.4-5.4,5.4v0C18.6,165.3,21,167.8,24,167.8z"/>
<path d="M68.5,167L68.5,167c2.6,0,4.6-2.1,4.6-4.6v-11.8c0-2.6-2.1-4.6-4.6-4.6h0c-2.6,0-4.6,2.1-4.6,4.6v11.8
	C63.8,164.9,65.9,167,68.5,167z"/>
<path d="M69.2,167.5h30.4c3,0,5.4-2.4,5.4-5.4v0c0-3-2.4-5.4-5.4-5.4H69.2c-3,0-5.4,2.4-5.4,5.4v0C63.8,165.1,66.2,167.5,69.2,167.5
	z"/>
<linearGradient id="SVGID_00000149340628262401902940000013374035029934700990_" gradientUnits="userSpaceOnUse" x1="4.0324" y1="75.7502" x2="62.3583" y2="75.7502">
	<stop  offset="0" style="stop-color:#CFE1F9"/>
	<stop  offset="1" style="stop-color:#DFEDD6"/>
</linearGradient>
<path style="fill:url(#SVGID_00000149340628262401902940000013374035029934700990_);" d="M18.4,150.3h18.9c4.5,0,8.3-8.3,8.3-8.3
	l10.9-16.9c7.1-11.1,7.9-25,2.2-36.9L44.2,58.5c-7.2-14.8-7.1-32.2,0.3-46.9l0,0c1.1-2.1,1-4.7-0.3-6.7c-1.5-2.2-4-3.7-6.9-3.7H18.4
	C13,1,10.1,9.4,10.1,9.4C2.8,25.1,1.7,42.7,9,57.8l14.4,29.8c5.6,11.7,4.9,25.4-2,36.4l-9.2,14.7c-3,4.8,0.1,11.2,5.6,11.5
	C18,150.3,18.2,150.3,18.4,150.3z"/>
<linearGradient id="SVGID_00000149361528722453248300000016504919854607007921_" gradientUnits="userSpaceOnUse" x1="45.913" y1="75.7502" x2="104.2389" y2="75.7502">
	<stop  offset="0" style="stop-color:#CFE1F9"/>
	<stop  offset="1" style="stop-color:#DFEDD6"/>
</linearGradient>
<path style="fill:url(#SVGID_00000149361528722453248300000016504919854607007921_);" d="M60.2,150.3h18.9c4.5,0,8.3-8.3,8.3-8.3
	l10.9-16.9c7.1-11.1,7.9-25,2.2-36.9L86,58.5c-7.2-14.8-7.1-32.2,0.3-46.9l0,0c1.1-2.1,1-4.7-0.3-6.7c-1.5-2.2-4-3.7-6.9-3.7H60.2
	C54.9,1,52,9.4,52,9.4c-7.2,15.6-8.4,33.2-1.1,48.4l14.4,29.8c5.6,11.7,4.9,25.4-2,36.4L54,138.8c-3,4.8,0.1,11.2,5.6,11.5
	C59.9,150.3,60,150.3,60.2,150.3z"/>
<path d="M174.7,167.3L174.7,167.3c2.6,0,4.6-2.1,4.6-4.6v-11.8c0-2.6-2.1-4.6-4.6-4.6h0c-2.6,0-4.6,2.1-4.6,4.6v11.8
	C170,165.2,172.1,167.3,174.7,167.3z"/>
<path d="M175.4,167.8h30.4c3,0,5.4-2.4,5.4-5.4v0c0-3-2.4-5.4-5.4-5.4h-30.4c-3,0-5.4,2.4-5.4,5.4v0
	C170,165.3,172.4,167.8,175.4,167.8z"/>
<path d="M219.9,167L219.9,167c2.6,0,4.6-2.1,4.6-4.6v-11.8c0-2.6-2.1-4.6-4.6-4.6h0c-2.6,0-4.6,2.1-4.6,4.6v11.8
	C215.2,164.9,217.3,167,219.9,167z"/>
<path d="M220.6,167.5h30.4c3,0,5.4-2.4,5.4-5.4v0c0-3-2.4-5.4-5.4-5.4h-30.4c-3,0-5.4,2.4-5.4,5.4v0
	C215.2,165.1,217.7,167.5,220.6,167.5z"/>
<linearGradient id="SVGID_00000145035494084818555760000016204337573017740218_" gradientUnits="userSpaceOnUse" x1="185.6084" y1="75.7502" x2="243.9342" y2="75.7502">
	<stop  offset="0" style="stop-color:#CFE1F9"/>
	<stop  offset="1" style="stop-color:#DFEDD6"/>
</linearGradient>
<path style="fill:url(#SVGID_00000145035494084818555760000016204337573017740218_);" d="M229.6,150.3h-18.9c-4.5,0-8.3-8.3-8.3-8.3
	l-10.9-16.9c-7.1-11.1-7.9-25-2.2-36.9l14.4-29.8c7.2-14.8,7.1-32.2-0.3-46.9l0,0c-1.1-2.1-1-4.7,0.3-6.7c1.5-2.2,4-3.7,6.9-3.7
	h18.9c5.3-0.2,8.3,8.3,8.3,8.3c7.2,15.6,8.4,33.2,1.1,48.4l-14.4,29.8c-5.6,11.7-4.9,25.4,2,36.4l9.2,14.7c3,4.8-0.1,11.2-5.6,11.5
	C230,150.3,229.8,150.3,229.6,150.3z"/>
<linearGradient id="SVGID_00000129195609460962181380000018181388726195416719_" gradientUnits="userSpaceOnUse" x1="143.7278" y1="75.7502" x2="202.0536" y2="75.7502">
	<stop  offset="0" style="stop-color:#CFE1F9"/>
	<stop  offset="1" style="stop-color:#DFEDD6"/>
</linearGradient>
<path style="fill:url(#SVGID_00000129195609460962181380000018181388726195416719_);" d="M187.7,150.3h-18.9c-4.5,0-8.3-8.3-8.3-8.3
	l-10.9-16.9c-7.1-11.1-7.9-25-2.2-36.9l14.4-29.8c7.2-14.8,7.1-32.2-0.3-46.9v0c-1.1-2.1-1-4.7,0.3-6.7c1.5-2.2,4-3.7,6.9-3.7h18.9
	C193,1,196,9.4,196,9.4c7.2,15.6,8.4,33.2,1.1,48.4l-14.4,29.8c-5.6,11.7-4.9,25.4,2,36.4l9.2,14.7c3,4.8-0.1,11.2-5.6,11.5
	C188.1,150.3,187.9,150.3,187.7,150.3z"/>
</svg>
