<?xml version="1.0" encoding="UTF-8"?>
<svg id="Layer_2" data-name="Layer 2" xmlns="http://www.w3.org/2000/svg" viewBox="0 0 187.85 187.9" fill="none">
    <g id="Layer_1-2">
        <g>
            <path fill="#000" stroke="#000" class="cls-2"
                  d="m84.46,82.48l.02,13.83v6.74c0-.74-.61-1.34-1.36-1.34h-1.25c-1.59,0-2.89,1.28-2.89,2.85v14.55c0,1.57,1.3,2.85,2.89,2.85h22.84c1.59,0,2.89-1.28,2.89-2.85v-8.97s0-13.83,0-13.83v-1.51c0-1.57-1.3-2.85-2.89-2.85h-1.53c-.23,0-.44.05-.63.15-.46.24-1,.24-1.47,0-.19-.1-.4-.15-.63-.15h-3.06c-.23,0-.44.05-.63.15-.46.24-1,.24-1.47,0-.19-.1-.4-.15-.63-.15h-3.06c-.75,0-1.36.6-1.36,1.34l-.02-10.81c0-1.57-1.3-2.85-2.89-2.85h0c-1.59,0-2.89,1.28-2.89,2.85Z"/>
            <line stroke="#000" class="cls-2" x1="95.89" y1="95.95" x2="95.89" y2="91.9"/>
            <line stroke="#000" class="cls-2" x1="95.89" y1="95.95" x2="95.89" y2="91.9"/>
            <line stroke="#000" class="cls-2" x1="101.85" y1="95.95" x2="101.85" y2="91.9"/>
            <line stroke="#000" class="cls-2" x1="84.46" y1="106.71" x2="84.46" y2="102.66"/>
            <rect fill="#000" x="89.73" y="114.42" width="8.94" height="23.48" rx="2.35" ry="2.35"
                  transform="translate(-31.96 220.36) rotate(-90)"/>
            <line stroke="#000" class="cls-2" x1="90.26" y1="96.12" x2="90.26" y2="92.06"/>
        </g>
        <circle stroke-width="3" stroke="#000" class="cls-1" cx="93.89" cy="90.9" r="81.78"/>
    </g>
</svg>