<?xml version="1.0" encoding="utf-8"?>
<!-- Generator: Adobe Illustrator 26.5.0, SVG Export Plug-In . SVG Version: 6.00 Build 0)  -->
<svg version="1.1" id="Layer_1" xmlns="http://www.w3.org/2000/svg" xmlns:xlink="http://www.w3.org/1999/xlink" x="0px" y="0px"
	 viewBox="0 0 703.7 183.2" style="enable-background:new 0 0 703.7 183.2;" xml:space="preserve">
<style type="text/css">
	.st0{fill:url(#SVGID_1_);}
	.st1{fill:#FFFFFF;}
	.st2{clip-path:url(#SVGID_00000108287227287936040690000009844529918725976492_);}
	.st3{fill:url(#SVGID_00000052098473294008792510000005197264977425284759_);}
	.st4{clip-path:url(#SVGID_00000165202618880032784520000000366557501225080987_);}
	.st5{fill:url(#SVGID_00000170251088979244190970000016786617543618467753_);}
	.st6{clip-path:url(#SVGID_00000080926325991207495550000004600863025340584071_);}
	.st7{fill:#FFFFFF;stroke:#000000;stroke-width:0.5;}
	.st8{fill:url(#SVGID_00000050663140309759446920000015177001380519219134_);}
	.st9{fill:#C0DDFF;}
	.st10{fill:url(#SVGID_00000160187665630026014490000009464003040059787145_);}
	.st11{fill:url(#SVGID_00000129907650118774651470000018022870346492368562_);}
	.st12{fill:url(#SVGID_00000075146697007690290980000016666129656201941130_);}
	.st13{fill:url(#SVGID_00000051378043302369615720000006013300972068348837_);}
	.st14{fill:none;stroke:#000000;stroke-width:2;stroke-miterlimit:10;}
	.st15{fill:url(#SVGID_00000004527962973038691200000017369903761903941036_);}
	.st16{fill:url(#SVGID_00000106836885043071238750000009130726264547644849_);}
	.st17{fill:url(#SVGID_00000126298854253901369090000010840447962934143145_);}
	.st18{fill:url(#SVGID_00000152964364496518241230000017934537777489952951_);}
	.st19{fill:url(#SVGID_00000174564216205627427380000003447959367301506238_);}
	.st20{fill:url(#SVGID_00000004509585677864113760000014581450143440139922_);}
	.st21{fill:none;stroke:#000000;stroke-width:0.5;}
	.st22{fill:url(#SVGID_00000061471521427538219060000003880807237417691267_);}
	.st23{fill:none;stroke:#000000;stroke-miterlimit:10;}
	.st24{fill:none;stroke:#000000;stroke-width:0.5;stroke-miterlimit:10;}
	.st25{fill:url(#SVGID_00000051362162162235781980000010321326926500320152_);}
	.st26{fill:url(#SVGID_00000070803632021140526340000016456624203851146166_);}
	.st27{clip-path:url(#SVGID_00000114065157211321710320000007610219430762848129_);}
	.st28{fill:url(#SVGID_00000158746447623701491360000003488371907328999572_);}
	.st29{fill:url(#SVGID_00000127038599088115382350000016043360975175053713_);}
	.st30{fill:url(#SVGID_00000122722113033173669740000017108743010664178587_);}
	.st31{fill:url(#SVGID_00000011713025445612914370000005418262817528261042_);}
	.st32{clip-path:url(#SVGID_00000142147627219281726720000001154003644045584045_);}
	.st33{fill:url(#SVGID_00000080902175405803921770000016518243769304208826_);}
	.st34{fill:url(#SVGID_00000028321858242752291440000011937667034487354045_);}
	.st35{fill:#C0DDFF;stroke:#000000;stroke-width:0.5;stroke-miterlimit:10;}
	.st36{fill:url(#SVGID_00000012450978355459528260000013594722608479222183_);}
	.st37{fill:url(#SVGID_00000146462663288299553150000008849516073668514451_);}
	.st38{fill:url(#SVGID_00000146492683200510889970000015447726669114919565_);}
	.st39{fill:url(#SVGID_00000116224079133823775780000015363315751451527093_);}
	.st40{fill:url(#SVGID_00000114791882092350784030000007796727052317011085_);}
	.st41{fill:url(#SVGID_00000077312770189993783680000001496906173523899014_);}
	.st42{fill:url(#SVGID_00000057134138969558348140000000463691559491328951_);}
	.st43{fill:url(#SVGID_00000133504218551337430290000006461486949844176288_);}
	.st44{fill:url(#SVGID_00000012466829891982858890000003136714017374948275_);}
	.st45{fill:url(#SVGID_00000038398002770436020530000006238261929618172053_);}
	.st46{fill:url(#SVGID_00000053537183677724618740000005498593482445652666_);}
	.st47{fill:url(#SVGID_00000125584382142014284350000002529741173274181549_);}
	.st48{fill:url(#SVGID_00000109735807133444137480000017323842587058170033_);}
	
		.st49{fill:url(#SVGID_00000067918447506552398120000013171769041587102878_);stroke:#000000;stroke-width:0.5;stroke-miterlimit:10;}
	.st50{fill:#FFFFFF;stroke:#000000;stroke-width:0.5;stroke-miterlimit:10;}
	.st51{clip-path:url(#SVGID_00000037675352037768156110000016393774918655905442_);}
	.st52{clip-path:url(#SVGID_00000093896158473838927690000008827017928616683916_);}
	.st53{fill:url(#SVGID_00000066481952159212426840000014471835452893429894_);}
	.st54{clip-path:url(#SVGID_00000051351496177830371090000003528408855381959339_);}
	.st55{fill:#0601FD;}
	.st56{fill:url(#SVGID_00000160878087254877608560000008256579268576319630_);}
	.st57{fill:#FFFFFF;stroke:#000000;stroke-miterlimit:10;}
	.st58{fill:url(#SVGID_00000137849047613649861680000001538348228004538545_);}
	.st59{clip-path:url(#SVGID_00000009573529358435540090000014622145677572672655_);}
	.st60{fill:url(#SVGID_00000147178694881605093680000011789716708340709284_);}
	.st61{clip-path:url(#SVGID_00000026853229769322147360000002900543341495206842_);}
	.st62{fill:url(#SVGID_00000110462457004685017780000001201384838801561495_);}
	.st63{fill:url(#SVGID_00000171698433341096521750000016691413945715149462_);}
	.st64{clip-path:url(#SVGID_00000173846893160024601610000005535410841721422208_);}
	.st65{fill:url(#SVGID_00000169538503382139793570000013675257572345812908_);}
	.st66{fill:url(#SVGID_00000148627913525442729290000000570761811079468426_);}
	.st67{clip-path:url(#SVGID_00000028293635421322908320000001579008941866031540_);}
	.st68{fill:#BEDBFC;}
	.st69{fill:url(#SVGID_00000168104587333628320460000005369840515204534435_);}
	.st70{clip-path:url(#SVGID_00000057121286618325137510000003085190992007447998_);}
	.st71{clip-path:url(#SVGID_00000067956973316222239250000017205256776438500754_);}
	.st72{clip-path:url(#SVGID_00000099640214220965461350000000918129858340410545_);}
	.st73{clip-path:url(#SVGID_00000036938313365843003210000018390000079494766737_);}
	.st74{clip-path:url(#SVGID_00000137107442138590731360000014274498144939632272_);}
	.st75{clip-path:url(#SVGID_00000159452915616089709840000005083039147423149732_);}
	.st76{fill:none;stroke:#000000;stroke-width:0.25;stroke-miterlimit:10;}
	.st77{clip-path:url(#SVGID_00000066484558013329743560000011192204133942202013_);}
	.st78{clip-path:url(#SVGID_00000096055446599327997040000010449540989571237029_);}
	.st79{clip-path:url(#SVGID_00000119824658744569945540000015636656610352905869_);}
	.st80{clip-path:url(#SVGID_00000120540024097119635810000009847087684961065389_);}
	.st81{clip-path:url(#SVGID_00000134223716400125663210000012269168591956403856_);}
	.st82{clip-path:url(#SVGID_00000150066821110721620110000017736510156023918767_);}
	.st83{clip-path:url(#SVGID_00000016774292862964384890000003168263596206530223_);}
	.st84{clip-path:url(#SVGID_00000072977891948218016060000017296784326277060031_);}
	.st85{clip-path:url(#SVGID_00000054988889073696621360000015312809150227242913_);}
	.st86{fill:#FFFFFF;stroke:#000000;stroke-width:2;stroke-miterlimit:10;}
	.st87{clip-path:url(#SVGID_00000070117921254398506930000008991679699009030582_);}
	
		.st88{fill:url(#SVGID_00000067195014653081351710000016189718162755320483_);stroke:#000000;stroke-width:0.5;stroke-miterlimit:10;}
	
		.st89{fill:url(#SVGID_00000098209267990444434160000011762307877971148454_);stroke:#000000;stroke-width:0.5;stroke-miterlimit:10;}
	.st90{clip-path:url(#SVGID_00000152957444175065160020000009931051183726131333_);}
	.st91{clip-path:url(#SVGID_00000124140832816769388910000007258877916971160255_);}
	.st92{clip-path:url(#SVGID_00000002370714666899267150000007646947406369104049_);}
	.st93{clip-path:url(#SVGID_00000113314263871458959740000010486586372771370883_);}
	.st94{clip-path:url(#SVGID_00000030453715502414705400000000784222987307978130_);}
	.st95{clip-path:url(#SVGID_00000083810936284627047750000003722119917053826230_);}
	.st96{clip-path:url(#SVGID_00000071560795359273018200000014414695192723882128_);}
	.st97{clip-path:url(#SVGID_00000049903377788068786600000012336674189906915487_);}
	.st98{clip-path:url(#SVGID_00000012432869261548330640000014169271062405316536_);}
	.st99{clip-path:url(#SVGID_00000127042693147817780470000008874974272474681493_);}
	.st100{clip-path:url(#SVGID_00000081638171656257426430000000216005458226716588_);}
	.st101{clip-path:url(#SVGID_00000163063893530872283630000013301490961227518360_);}
	.st102{clip-path:url(#SVGID_00000159447636349139249540000016987418066191387027_);}
	.st103{fill:url(#SVGID_00000150820153880113358760000010136516695353855129_);}
	.st104{fill:url(#SVGID_00000150793776750594588230000015877825070088180123_);}
	.st105{fill:url(#SVGID_00000169524096724075707540000010797664340979923635_);}
	.st106{fill:url(#SVGID_00000104683744923760789920000005176269263087920266_);}
	.st107{fill:none;stroke:#C1272D;stroke-miterlimit:10;}
	.st108{clip-path:url(#SVGID_00000119838625346974186520000003007713096020662959_);}
	.st109{fill:#D93B31;}
	.st110{clip-path:url(#SVGID_00000116223358239759853990000010802506102934478220_);}
	.st111{fill:#221F20;}
	.st112{opacity:0.3;}
	.st113{clip-path:url(#SVGID_00000072239889498128774660000014117798043374948030_);}
	.st114{fill:none;stroke:#221F20;stroke-width:0.15;stroke-miterlimit:10;}
	.st115{clip-path:url(#SVGID_00000157276527927715150760000014345290263528195476_);}
	.st116{clip-path:url(#SVGID_00000123404738194178198930000002849905283946415803_);}
	.st117{fill:url(#SVGID_00000161623633737580308630000008022666518606069637_);}
	.st118{fill:url(#SVGID_00000030472520861472894060000001957192052790594961_);}
	.st119{fill:url(#SVGID_00000165198021124900276810000012385659026153706122_);}
	.st120{fill:url(#SVGID_00000058559554519868437610000006613148624942459264_);}
	.st121{fill:url(#SVGID_00000139991719361509257770000004858199101752399535_);}
	.st122{fill:url(#SVGID_00000033338636967568493380000017880204685086396563_);}
	.st123{fill:url(#SVGID_00000126303344899256994740000011236206740353981575_);}
	.st124{fill:url(#SVGID_00000179607666069839623260000017123805960158623901_);}
	.st125{fill:url(#SVGID_00000137824517559337290090000013930422728958916748_);}
	.st126{fill:url(#SVGID_00000104678767025163830630000015576297832971253405_);}
	.st127{fill:url(#SVGID_00000073706385985403559340000017304013574582047147_);}
	.st128{fill:url(#SVGID_00000104679603771081449470000001188386799998156734_);}
	.st129{fill:url(#SVGID_00000135666194846257386280000017854394772588606596_);}
	.st130{fill:url(#SVGID_00000145020068453771969900000009095329599752783508_);}
</style>
<path d="M22,172.4L22,172.4c2.7,0,4.8-2.2,4.8-4.8v-12.2c0-2.7-2.2-4.8-4.8-4.8h0c-2.7,0-4.8,2.2-4.8,4.8v12.2
	C17.1,170.3,19.3,172.4,22,172.4z"/>
<path d="M22.8,172.9h31.6c3.1,0,5.6-2.5,5.6-5.6v0c0-3.1-2.5-5.6-5.6-5.6H22.8c-3.1,0-5.6,2.5-5.6,5.6v0
	C17.1,170.4,19.7,172.9,22.8,172.9z"/>
<path d="M106.4,155.9L106.4,155.9c2.3-1.3,3.2-4.2,1.9-6.5l-5.9-10.7c-1.3-2.3-4.2-3.2-6.5-1.9h0c-2.3,1.3-3.2,4.2-1.9,6.5l5.9,10.7
	C101.1,156.3,104.1,157.2,106.4,155.9z"/>
<path d="M107.4,156l27.7-15.2c2.7-1.5,3.7-4.9,2.2-7.6v0c-1.5-2.7-4.9-3.7-7.6-2.2L102,146.2c-2.7,1.5-3.7,4.9-2.2,7.6h0
	C101.2,156.5,104.7,157.5,107.4,156z"/>
<linearGradient id="SVGID_1_" gradientUnits="userSpaceOnUse" x1="6.6165" y1="78.5435" x2="43.3646" y2="78.5435">
	<stop  offset="0" style="stop-color:#CFE1F9"/>
	<stop  offset="1" style="stop-color:#DFEDD6"/>
</linearGradient>
<path class="st0" d="M31.4,155.9H18.6c-6.6,0-12-5.4-12-12V13.2c0-6.6,5.4-12,12-12h12.7c6.6,0,12,5.4,12,12v130.8
	C43.4,150.5,38,155.9,31.4,155.9z"/>
<linearGradient id="SVGID_00000169537549835508208880000005232625284732653472_" gradientUnits="userSpaceOnUse" x1="455.6559" y1="-4529.2222" x2="491.7776" y2="-4529.2222" gradientTransform="matrix(0.8767 -0.4811 0.4811 0.8767 1823.7294 4273.1675)">
	<stop  offset="0" style="stop-color:#CFE1F9"/>
	<stop  offset="1" style="stop-color:#DFEDD6"/>
</linearGradient>
<path style="fill:url(#SVGID_00000169537549835508208880000005232625284732653472_);" d="M102.6,139.5L92,145.4
	c-5.8,3.2-13.1,1-16.3-4.7L12.8,26c-3.2-5.8-1-13.1,4.7-16.3l10.6-5.8c5.8-3.2,13.1-1,16.3,4.7l62.9,114.6
	C110.6,129,108.4,136.4,102.6,139.5z"/>
<path d="M265.1,172.4L265.1,172.4c2.7,0,4.8-2.2,4.8-4.8v-12.2c0-2.7-2.2-4.8-4.8-4.8l0,0c-2.7,0-4.8,2.2-4.8,4.8v12.2
	C260.3,170.3,262.5,172.4,265.1,172.4z"/>
<path d="M265.9,172.9h31.6c3.1,0,5.6-2.5,5.6-5.6v0c0-3.1-2.5-5.6-5.6-5.6h-31.6c-3.1,0-5.6,2.5-5.6,5.6v0
	C260.3,170.4,262.8,172.9,265.9,172.9z"/>
<path d="M197.8,160.8L197.8,160.8c2.4,1.2,5.3,0.1,6.4-2.3l5.3-11c1.2-2.4,0.1-5.3-2.3-6.4l0,0c-2.4-1.2-5.3-0.1-6.4,2.3l-5.3,11
	C194.4,156.7,195.4,159.6,197.8,160.8z"/>
<path d="M198.2,161.6l28.4,13.7c2.8,1.3,6.2,0.2,7.5-2.6v0c1.3-2.8,0.2-6.2-2.6-7.5l-28.4-13.7c-2.8-1.3-6.2-0.2-7.5,2.6v0
	C194.3,156.9,195.4,160.3,198.2,161.6z"/>
<linearGradient id="SVGID_00000062163648647893591930000013858126045739462538_" gradientUnits="userSpaceOnUse" x1="249.7906" y1="78.5435" x2="286.5387" y2="78.5435">
	<stop  offset="0" style="stop-color:#CFE1F9"/>
	<stop  offset="1" style="stop-color:#DFEDD6"/>
</linearGradient>
<path style="fill:url(#SVGID_00000062163648647893591930000013858126045739462538_);" d="M274.5,155.9h-12.7c-6.6,0-12-5.4-12-12
	V13.2c0-6.6,5.4-12,12-12h12.7c6.6,0,12,5.4,12,12v130.8C286.5,150.5,281.1,155.9,274.5,155.9z"/>
<linearGradient id="SVGID_00000111164308494139120340000015906703581079403937_" gradientUnits="userSpaceOnUse" x1="1919.468" y1="4036.4358" x2="1955.5898" y2="4036.4358" gradientTransform="matrix(0.901 0.4337 -0.4337 0.901 241.8776 -4401.5239)">
	<stop  offset="0" style="stop-color:#CFE1F9"/>
	<stop  offset="1" style="stop-color:#DFEDD6"/>
</linearGradient>
<path style="fill:url(#SVGID_00000111164308494139120340000015906703581079403937_);" d="M208.9,148.2l-10.9-5.3
	c-5.9-2.9-8.5-10.1-5.6-16L249.1,9.1c2.9-5.9,10.1-8.5,16-5.6L276,8.7c5.9,2.9,8.5,10.1,5.6,16l-56.7,117.8
	C222.1,148.5,214.9,151.1,208.9,148.2z"/>
<path d="M411.8,172.4L411.8,172.4c2.7,0,4.8-2.2,4.8-4.8v-12.2c0-2.7-2.2-4.8-4.8-4.8l0,0c-2.7,0-4.8,2.2-4.8,4.8v12.2
	C407,170.3,409.2,172.4,411.8,172.4z"/>
<path d="M412.6,172.9h31.6c3.1,0,5.6-2.5,5.6-5.6v0c0-3.1-2.5-5.6-5.6-5.6h-31.6c-3.1,0-5.6,2.5-5.6,5.6v0
	C407,170.4,409.5,172.9,412.6,172.9z"/>
<path d="M496.3,155.9L496.3,155.9c2.3-1.3,3.2-4.2,1.9-6.5l-5.9-10.7c-1.3-2.3-4.2-3.2-6.5-1.9h0c-2.3,1.3-3.2,4.2-1.9,6.5l5.9,10.7
	C491,156.3,493.9,157.2,496.3,155.9z"/>
<path d="M497.2,156l27.7-15.2c2.7-1.5,3.7-4.9,2.2-7.6v0c-1.5-2.7-4.9-3.7-7.6-2.2l-27.7,15.2c-2.7,1.5-3.7,4.9-2.2,7.6h0
	C491.1,156.5,494.5,157.5,497.2,156z"/>
<linearGradient id="SVGID_00000123416799848273181930000007651727212852401284_" gradientUnits="userSpaceOnUse" x1="396.4789" y1="78.5435" x2="433.2271" y2="78.5435">
	<stop  offset="0" style="stop-color:#CFE1F9"/>
	<stop  offset="1" style="stop-color:#DFEDD6"/>
</linearGradient>
<path style="fill:url(#SVGID_00000123416799848273181930000007651727212852401284_);" d="M421.2,155.9h-12.7c-6.6,0-12-5.4-12-12
	V13.2c0-6.6,5.4-12,12-12h12.7c6.6,0,12,5.4,12,12v130.8C433.2,150.5,427.8,155.9,421.2,155.9z"/>
<linearGradient id="SVGID_00000099637474107201066950000016857034657606980543_" gradientUnits="userSpaceOnUse" x1="797.4387" y1="-4341.666" x2="833.5604" y2="-4341.666" gradientTransform="matrix(0.8767 -0.4811 0.4811 0.8767 1823.7294 4273.1675)">
	<stop  offset="0" style="stop-color:#CFE1F9"/>
	<stop  offset="1" style="stop-color:#DFEDD6"/>
</linearGradient>
<path style="fill:url(#SVGID_00000099637474107201066950000016857034657606980543_);" d="M492.5,139.5l-10.6,5.8
	c-5.8,3.2-13.1,1-16.3-4.7L402.7,26c-3.2-5.8-1-13.1,4.7-16.3L418,3.9c5.8-3.2,13.1-1,16.3,4.7l62.9,114.6
	C500.4,129,498.3,136.4,492.5,139.5z"/>
<path d="M662.6,172.4L662.6,172.4c2.7,0,4.8-2.2,4.8-4.8v-12.2c0-2.7-2.2-4.8-4.8-4.8l0,0c-2.7,0-4.8,2.2-4.8,4.8v12.2
	C657.7,170.3,659.9,172.4,662.6,172.4z"/>
<path d="M663.3,172.9h31.6c3.1,0,5.6-2.5,5.6-5.6v0c0-3.1-2.5-5.6-5.6-5.6h-31.6c-3.1,0-5.6,2.5-5.6,5.6v0
	C657.7,170.4,660.3,172.9,663.3,172.9z"/>
<path d="M615.3,172.1L615.3,172.1c2.7,0,4.8-2.2,4.8-4.8V155c0-2.7-2.2-4.8-4.8-4.8l0,0c-2.7,0-4.8,2.2-4.8,4.8v12.2
	C610.5,169.9,612.6,172.1,615.3,172.1z"/>
<path d="M616.1,172.7h31.6c3.1,0,5.6-2.5,5.6-5.6l0,0c0-3.1-2.5-5.6-5.6-5.6h-31.6c-3.1,0-5.6,2.5-5.6,5.6v0
	C610.5,170.1,613,172.7,616.1,172.7z"/>
<linearGradient id="SVGID_00000060023870375125134180000018135710155548676488_" gradientUnits="userSpaceOnUse" x1="647.2085" y1="78.5435" x2="683.9566" y2="78.5435">
	<stop  offset="0" style="stop-color:#CFE1F9"/>
	<stop  offset="1" style="stop-color:#DFEDD6"/>
</linearGradient>
<path style="fill:url(#SVGID_00000060023870375125134180000018135710155548676488_);" d="M672,155.9h-12.7c-6.6,0-12-5.4-12-12V13.2
	c0-6.6,5.4-12,12-12H672c6.6,0,12,5.4,12,12v130.8C684,150.5,678.6,155.9,672,155.9z"/>
<linearGradient id="SVGID_00000038371289001046995130000013194719188345543090_" gradientUnits="userSpaceOnUse" x1="644.3821" y1="22.1087" x2="680.5039" y2="22.1087" gradientTransform="matrix(1 0 0 1 -48.6431 56.4348)">
	<stop  offset="0" style="stop-color:#CFE1F9"/>
	<stop  offset="1" style="stop-color:#DFEDD6"/>
</linearGradient>
<path style="fill:url(#SVGID_00000038371289001046995130000013194719188345543090_);" d="M619.9,155.9h-12.1c-6.6,0-12-5.4-12-12
	V13.2c0-6.6,5.4-12,12-12l12.1,0c6.6,0,12,5.4,12,12l0,130.8C631.9,150.5,626.5,155.9,619.9,155.9z"/>
</svg>
