<?xml version="1.0" encoding="UTF-8"?><svg id="Layer_1" xmlns="http://www.w3.org/2000/svg" viewBox="0 0 1920 1243.89"><defs><style>.cls-1{font-family:Telegraf-Regular, Telegraf;font-size:8px;}.cls-2{fill:none;stroke:#000;stroke-miterlimit:10;stroke-width:.5px;}</style></defs><text class="cls-1" transform="translate(1174.28 808.67) rotate(10.19)"><tspan x="0" y="0"> </tspan></text><text class="cls-1" transform="translate(1176 809.1) rotate(11.67)"><tspan x="0" y="0"> </tspan></text><text class="cls-1" transform="translate(1177.45 810.13) rotate(12.13)"><tspan x="0" y="0">A</tspan></text><text class="cls-1" transform="translate(1182.37 811.85) rotate(17.2)"><tspan x="0" y="0">š</tspan></text><text class="cls-1" transform="translate(1186.14 813.33) rotate(22.55)"><tspan x="0" y="0"> </tspan></text><text class="cls-1" transform="translate(1187.88 814.58) rotate(22.02)"><tspan x="0" y="0">e</tspan></text><text class="cls-1" transform="translate(1192.08 816.54) rotate(17.9)"><tspan x="0" y="0">s</tspan></text><text class="cls-1" transform="translate(1195.95 817.75) rotate(29.5)"><tspan x="0" y="0">u</tspan></text><text class="cls-1" transform="translate(1201.75 821.41) rotate(-8.31)"><tspan x="0" y="0"> </tspan></text><text class="cls-1" transform="translate(1204.21 822.96) rotate(-16.15)"><tspan x="0" y="0">k</tspan></text><text class="cls-1" transform="translate(1206.36 818.5) rotate(-143.1)"><tspan x="0" y="0">ū</tspan></text><text class="cls-1" transform="translate(1202.15 814.82) rotate(-145.83)"><tspan x="0" y="0">r</tspan></text><text class="cls-1" transform="translate(1199.89 813.94) rotate(-127.86)"><tspan x="0" y="0">ė</tspan></text><text class="cls-1" transform="translate(1196 810.86) rotate(-145.52)"><tspan x="0" y="0">j</tspan></text><text class="cls-1" transform="translate(1194.62 809.52) rotate(-143.81)"><tspan x="0" y="0">a</tspan></text><text class="cls-1" transform="translate(1191.16 806.83) rotate(-144.41)"><tspan x="0" y="0">s</tspan></text><text class="cls-1" transform="translate(1187.83 804.49) rotate(-144.73)"><tspan x="0" y="0">,</tspan></text><text class="cls-1" transform="translate(1186.76 803.77) rotate(-146.62)"><tspan x="0" y="0"> </tspan></text><text class="cls-1" transform="translate(1185.45 802.76) rotate(-136.71)"><tspan x="0" y="0">k</tspan></text><text class="cls-1" transform="translate(1182.02 800.36) rotate(-120.92)"><tspan x="0" y="0">u</tspan></text><text class="cls-1" transform="translate(1179.62 797.7) rotate(-117.03)"><tspan x="0" y="0">r</tspan></text><text class="cls-1" transform="translate(1178.2 795.63) rotate(-106.02)"><tspan x="0" y="0">i</tspan></text><text class="cls-1" transform="translate(1176.51 795.55) rotate(-51.57)"><tspan x="0" y="0">s</tspan></text><text class="cls-1" transform="translate(1177.67 793.97) rotate(-26.45)"><tspan x="0" y="0"> </tspan></text><text class="cls-1" transform="translate(1178.08 792.79) rotate(12.11)"><tspan x="0" y="0">b</tspan></text><text class="cls-1" transform="translate(1183.39 793.63) rotate(41.2)"><tspan x="0" y="0">a</tspan></text><text class="cls-1" transform="translate(1187.63 796.43) rotate(21.18)"><tspan x="0" y="0">n</tspan></text><text class="cls-1" transform="translate(1191.46 798.46) rotate(23.75)"><tspan x="0" y="0">d</tspan></text><text class="cls-1" transform="translate(1194.83 800.28) rotate(38.43)"><tspan x="0" y="0">o</tspan></text><text class="cls-1" transform="translate(1198.52 803.38) rotate(42.51)"><tspan x="0" y="0"> </tspan></text><text class="cls-1" transform="translate(1200.05 804.81) rotate(37.8)"><tspan x="0" y="0">s</tspan></text><text class="cls-1" transform="translate(1203.28 807.88) rotate(38.1)"><tspan x="0" y="0">u</tspan></text><text class="cls-1" transform="translate(1207.08 810.96) rotate(35.59)"><tspan x="0" y="0">v</tspan></text><text class="cls-1" transform="translate(1210.52 813.66) rotate(35.41)"><tspan x="0" y="0">o</tspan></text><text class="cls-1" transform="translate(1214.8 816.87) rotate(25.63)"><tspan x="0" y="0">k</tspan></text><text class="cls-1" transform="translate(1219.23 819.02) rotate(17.19)"><tspan x="0" y="0">t</tspan></text><text class="cls-1" transform="translate(1222.13 820.44) rotate(12.94)"><tspan x="0" y="0">i</tspan></text><text class="cls-1" transform="translate(1224.05 820.69) rotate(14.73)"><tspan x="0" y="0"> </tspan></text><text class="cls-1" transform="translate(1225.89 820.86) rotate(19.67)"><tspan x="0" y="0">p</tspan></text><text class="cls-1" transform="translate(1230.28 822.54) rotate(21.67)"><tspan x="0" y="0">a</tspan></text><text class="cls-1" transform="translate(1234.43 823.67) rotate(24.13)"><tspan x="0" y="0">s</tspan></text><text class="cls-1" transform="translate(1237.72 825.31) rotate(28.08)"><tspan x="0" y="0">a</tspan></text><text class="cls-1" transform="translate(1241.38 826.96) rotate(32.62)"><tspan x="0" y="0">u</tspan></text><text class="cls-1" transform="translate(1245.91 830.47) rotate(3.52)"><tspan x="0" y="0">l</tspan></text><text class="cls-1" transform="translate(1247.59 830.93) rotate(26.74)"><tspan x="0" y="0">į</tspan></text><text class="cls-1" transform="translate(1249.5 832.17) rotate(19.67)"><tspan x="0" y="0"> </tspan></text><text class="cls-1" transform="translate(1251.43 832.38) rotate(20.63)"><tspan x="0" y="0">i</tspan></text><text class="cls-1" transform="translate(1252.77 833.68) rotate(20.02)"><tspan x="0" y="0">r</tspan></text><text class="cls-1" transform="translate(1256.09 834.55) rotate(15.13)"><tspan x="0" y="0"> </tspan></text><text class="cls-1" transform="translate(1257.81 835.49) rotate(14.24)"><tspan x="0" y="0">s</tspan></text><text class="cls-1" transform="translate(1262.36 836.69) rotate(6.65)"><tspan x="0" y="0">a</tspan></text><text class="cls-1" transform="translate(1266.75 837.39) rotate(1.52)"><tspan x="0" y="0">v</tspan></text><text class="cls-1" transform="translate(1271.19 837.63) rotate(-4.02)"><tspan x="0" y="0">o</tspan></text><text class="cls-1" transform="translate(1276.06 837.33) rotate(-7.26)"><tspan x="0" y="0"> </tspan></text><text class="cls-1" transform="translate(1278.13 836.82) rotate(-12.78)"><tspan x="0" y="0">v</tspan></text><text class="cls-1" transform="translate(1282.56 836.09) rotate(-16.74)"><tspan x="0" y="0">i</tspan></text><text class="cls-1" transform="translate(1284.83 835.54) rotate(-25.28)"><tspan x="0" y="0">e</tspan></text><text class="cls-1" transform="translate(1289.74 833.12) rotate(-41.09)"><tspan x="0" y="0">t</tspan></text><text class="cls-1" transform="translate(1292.98 830.42) rotate(-58.23)"><tspan x="0" y="0">ą</tspan></text><text class="cls-1" transform="translate(1295.68 826.15) rotate(-70.55)"><tspan x="0" y="0"> </tspan></text><text class="cls-1" transform="translate(1296.55 824.16) rotate(-76.79)"><tspan x="0" y="0">j</tspan></text><text class="cls-1" transform="translate(1297.25 821.97) rotate(-86.27)"><tspan x="0" y="0">a</tspan></text><text class="cls-1" transform="translate(1297.44 816.69) rotate(-103.13)"><tspan x="0" y="0">m</tspan></text><text class="cls-1" transform="translate(1295.34 809.19) rotate(-111.14)"><tspan x="0" y="0">e</tspan></text><text class="cls-1" transform="translate(1293.41 804.76) rotate(-115.06)"><tspan x="0" y="0">.</tspan></text><text class="cls-1" transform="translate(1292.77 803.66) rotate(-116.72)"><tspan x="0" y="0"> </tspan></text><text class="cls-1" transform="translate(1291.61 801.81) rotate(-121.08)"><tspan x="0" y="0">A</tspan></text><text class="cls-1" transform="translate(1288.59 796.5) rotate(-130.77)"><tspan x="0" y="0">š</tspan></text><text class="cls-1" transform="translate(1285.98 793.18) rotate(-131.07)"><tspan x="0" y="0"> </tspan></text><text class="cls-1" transform="translate(1284.54 791.8) rotate(-132.9)"><tspan x="0" y="0">e</tspan></text><text class="cls-1" transform="translate(1281.88 788.29) rotate(-135.11)"><tspan x="0" y="0">s</tspan></text><text class="cls-1" transform="translate(1279.51 785.12) rotate(-137.24)"><tspan x="0" y="0">u</tspan></text><text class="cls-1" transform="translate(1275.65 782.08) rotate(-138.37)"><tspan x="0" y="0"> </tspan></text><text class="cls-1" transform="translate(1274.28 780.77) rotate(-141.14)"><tspan x="0" y="0">s</tspan></text><text class="cls-1" transform="translate(1271.09 778.59) rotate(-136.83)"><tspan x="0" y="0">v</tspan></text><text class="cls-1" transform="translate(1268.01 775.73) rotate(-138.4)"><tspan x="0" y="0">a</tspan></text><text class="cls-1" transform="translate(1264.57 772.89) rotate(-138.05)"><tspan x="0" y="0">j</tspan></text><text class="cls-1" transform="translate(1263.36 771.47) rotate(-139.67)"><tspan x="0" y="0">o</tspan></text><text class="cls-1" transform="translate(1259.56 768.65) rotate(-135.38)"><tspan x="0" y="0">t</tspan></text><text class="cls-1" transform="translate(1257.35 766.2) rotate(-140.15)"><tspan x="0" y="0">o</tspan></text><text class="cls-1" transform="translate(1253.68 763.27) rotate(-141.01)"><tspan x="0" y="0">j</tspan></text><text class="cls-1" transform="translate(1252.33 762.22) rotate(-141.99)"><tspan x="0" y="0">a</tspan></text>
</svg>