<?xml version="1.0" encoding="UTF-8"?>
<svg id="Layer_2" data-name="Layer 2" xmlns="http://www.w3.org/2000/svg" viewBox="0 0 186.48 182.82">
  <defs>
    <style>
      .cls-1 {
        font-family: Telegraf-Regular, 'Telegraf Regular';
        font-size: 30px;
      }
    </style>
  </defs>
  <g id="Layer_1-2" data-name="Layer 1">
    <g>
      <text class="cls-1" transform="translate(43.87 147.9) rotate(-115.67)"><tspan x="0" y="0">A</tspan></text>
      <text class="cls-1" transform="translate(36.66 132.28) rotate(-105.85)"><tspan x="0" y="0">t</tspan></text>
      <text class="cls-1" transform="translate(34.02 123.38) rotate(-98.16)"><tspan x="0" y="0">s</tspan></text>
      <text class="cls-1" transform="translate(32.52 112.16) rotate(-91.59)"><tspan x="0" y="0">i</tspan></text>
      <text class="cls-1" transform="translate(32.16 105.74) rotate(-84.97)"><tspan x="0" y="0">s</tspan></text>
      <text class="cls-1" transform="translate(33.17 94.56) rotate(-77.23)"><tspan x="0" y="0">t</tspan></text>
      <text class="cls-1" transform="translate(34.83 85.72) rotate(-67.99)"><tspan x="0" y="0">o</tspan></text>
      <text class="cls-1" transform="translate(40.69 71.28) rotate(-57.22)"><tspan x="0" y="0">k</tspan></text>
      <text class="cls-1" transform="translate(48.14 60.09) rotate(-50.05)"><tspan x="0" y="0"> </tspan></text>
      <text class="cls-1" transform="translate(51.47 55.44) rotate(-41.83)"><tspan x="0" y="0">p</tspan></text>
      <text class="cls-1" transform="translate(63.73 44.78) rotate(-32.36)"><tspan x="0" y="0">r</tspan></text>
      <text class="cls-1" transform="translate(71.71 39.78) rotate(-26.31)"><tspan x="0" y="0">i</tspan></text>
      <text class="cls-1" transform="translate(77.27 36.68) rotate(-18.49)"><tspan x="0" y="0">e</tspan></text>
      <text class="cls-1" transform="translate(90.98 32.35) rotate(-10.92)"><tspan x="0" y="0"> </tspan></text>
      <text class="cls-1" transform="translate(96.82 31.19) rotate(-6.21)"><tspan x="0" y="0">l</tspan></text>
      <text class="cls-1" transform="translate(103.44 30.46) rotate(-1.32)"><tspan x="0" y="0">i</tspan></text>
      <text class="cls-1" transform="translate(109.76 29.91) rotate(7.01)"><tspan x="0" y="0">n</tspan></text>
      <text class="cls-1" transform="translate(125.54 32.15) rotate(15.43)"><tspan x="0" y="0">i</tspan></text>
      <text class="cls-1" transform="translate(131.89 33.88) rotate(20.5)"><tspan x="0" y="0">j</tspan></text>
      <text class="cls-1" transform="translate(138.21 35.83) rotate(28.9)"><tspan x="0" y="0">o</tspan></text>
      <text class="cls-1" transform="translate(151.81 43.48) rotate(38.84)"><tspan x="0" y="0">s</tspan></text>
    </g>
  </g>
</svg>