<?xml version="1.0" encoding="UTF-8"?>
<svg id="Layer_2" data-name="Layer 2" xmlns="http://www.w3.org/2000/svg" viewBox="0 0 283.87 284.14">
    <defs>
        <style>
            .cls-1 {
            font-family: Telegraf-Regular, 'Telegraf Regular';
            font-size: 30px;
            }

            .cls-2 {
            fill: none;
            stroke: #000;
            stroke-miterlimit: 10;
            stroke-width: .5px;
            }
        </style>
    </defs>
    <g id="Layer_1-2">
        <g>
            <path class="cls-2"
                  d="m69.99,76.23l-6.08,12.43-2.98,6.05c.33-.66.04-1.47-.63-1.8l-1.12-.55c-1.43-.7-3.16-.12-3.85,1.29l-6.42,13.05c-.69,1.41-.09,3.14,1.33,3.84l20.5,10.08c1.43.7,3.16.12,3.85-1.29l3.96-8.05,6.1-12.41.67-1.36c.69-1.41.09-3.14-1.33-3.84l-1.37-.68c-.2-.1-.42-.14-.63-.14-.52.01-1.01-.23-1.31-.65-.13-.17-.29-.31-.49-.41l-2.75-1.35c-.2-.1-.42-.14-.63-.14-.52.01-1.01-.23-1.31-.65-.13-.17-.29-.31-.49-.41l-2.75-1.35c-.67-.33-1.49-.06-1.81.6l4.75-9.71c.69-1.41.09-3.14-1.33-3.84h0c-1.43-.7-3.16-.12-3.85,1.29Z"/>
            <line class="cls-2" x1="74.3" y1="93.37" x2="76.09" y2="89.73"/>
            <line class="cls-2" x1="79.65" y1="96" x2="81.44" y2="92.36"/>
            <line class="cls-2" x1="59.3" y1="97.98" x2="61.08" y2="94.34"/>
            <rect x="54.99" y="107.99" width="8.94" height="23.48" rx="2.35" ry="2.35"
                  transform="translate(-74.22 120.26) rotate(-63.82)"/>
            <line class="cls-2" x1="69.18" y1="91.03" x2="70.97" y2="87.4"/>
        </g>
    </g>
</svg>