<?xml version="1.0" encoding="UTF-8"?>
<svg id="Layer_2" data-name="Layer 2" xmlns="http://www.w3.org/2000/svg" viewBox="0 0 47.83 61.06">
  <defs>
    <style>
      .cls-1 {
        fill: none;
        stroke: #000;
        stroke-width: .5px;
      }
    </style>
  </defs>
  <g id="Layer_1-2" data-name="Layer 1">
    <path class="cls-1" d="m12.33,50.55c2.78,2.75,6.66,4.13,11.63,4.13s9.16-1.2,11.85-3.6c2.69-2.4,4.04-5.93,4.04-10.61,0-3.85-1.08-6.91-3.24-9.19-2.16-2.28-5.28-3.42-9.37-3.42-2.19,0-4.12.27-5.77.8-1.66.53-3.37,1.39-5.15,2.57l-3.55-4.71L36.04,6.29H2.48V.25h42.27v6.04l-20.33,18.29c2.01-.53,4.02-.8,6.04-.8,3.02,0,5.83.64,8.44,1.91,2.6,1.27,4.71,3.18,6.3,5.73,1.6,2.55,2.4,5.62,2.4,9.23s-.8,6.85-2.4,9.9c-1.6,3.05-4.17,5.52-7.72,7.41-3.55,1.89-8.11,2.84-13.67,2.84-5.03,0-9.29-.9-12.79-2.71s-6.13-4.26-7.9-7.37c-1.78-3.11-2.72-6.64-2.84-10.61h7.73c.12,4.2,1.57,7.68,4.35,10.43Z"/>
  </g>
</svg>