<?xml version="1.0" encoding="UTF-8"?>
<svg id="Layer_2" data-name="Layer 2" xmlns="http://www.w3.org/2000/svg" viewBox="0 0 46.1 60.74">
  <defs>
    <style>
      .cls-1 {
        fill: none;
        stroke: #000;
        stroke-width: .5px;
      }
    </style>
  </defs>
  <g id="Layer_1-2" data-name="Layer 1">
    <path class="cls-1" d="m29.45,30.06c2.88-2.41,4.86-4.57,5.95-6.48,1.09-1.91,1.63-4.16,1.63-6.75,0-3.18-1.04-5.72-3.13-7.63-2.09-1.91-5.22-2.87-9.39-2.87-5.7,0-9.88,1.59-12.52,4.76-2.65,3.18-4.03,7.85-4.15,14.02H.25c.12-7.41,2.1-13.41,5.95-17.99C10.06,2.54,16.13.25,24.42.25c6.94,0,12.05,1.56,15.35,4.67,3.29,3.12,4.94,7.06,4.94,11.82,0,3.7-1.07,7.12-3.22,10.23-2.15,3.12-5.75,6.76-10.8,10.94l-19.85,16.58h35.02v6H.34v-6l29.11-24.43Z"/>
  </g>
</svg>